<?xml version="1.0" encoding="UTF-8"?>
<svg xmlns="http://www.w3.org/2000/svg" xmlns:xlink="http://www.w3.org/1999/xlink" viewBox="0 0 50 50" width="50px" height="50px">
<g id="surface1505858">
<path style=" stroke:none;fill-rule:nonzero;fill:rgb(18.039216%,80.000001%,44.313726%);fill-opacity:1;" d="M 41.667969 12.5 L 22.917969 12.5 L 18.75 8.332031 L 8.332031 8.332031 C 6.042969 8.332031 4.167969 10.207031 4.167969 12.5 L 4.167969 20.832031 L 45.832031 20.832031 L 45.832031 16.667969 C 45.832031 14.375 43.957031 12.5 41.667969 12.5 Z M 41.667969 12.5 "/>
<path style=" stroke:none;fill-rule:nonzero;fill:rgb(10.196079%,73.725492%,61.176473%);fill-opacity:1;" d="M 41.667969 12.5 L 8.332031 12.5 C 6.042969 12.5 4.167969 14.375 4.167969 16.667969 L 4.167969 37.5 C 4.167969 39.792969 6.042969 41.667969 8.332031 41.667969 L 41.667969 41.667969 C 43.957031 41.667969 45.832031 39.792969 45.832031 37.5 L 45.832031 16.667969 C 45.832031 14.375 43.957031 12.5 41.667969 12.5 Z M 41.667969 12.5 "/>
</g>
</svg>
